<?xml version="1.0" encoding="UTF-8" standalone="no"?>
<!DOCTYPE svg PUBLIC "-//W3C//DTD SVG 1.1//EN" "http://www.w3.org/Graphics/SVG/1.1/DTD/svg11.dtd">
<svg width="100%" height="100%" viewBox="0 0 500 500" version="1.1" xmlns="http://www.w3.org/2000/svg" xmlns:xlink="http://www.w3.org/1999/xlink" xml:space="preserve" xmlns:serif="http://www.serif.com/" style="fill-rule:evenodd;clip-rule:evenodd;stroke-linejoin:round;stroke-miterlimit:2;">
    <g transform="matrix(1,0,0,1,-1250,0)">
        <g id="icon-windows-close" transform="matrix(0.416667,0,0,0.625,1250,0)">
            <g id="icon-windows-close1" serif:id="icon-windows-close" transform="matrix(43.2,0,0,28.8,-47460,-680)">
                <g>
                    <g transform="matrix(0.888889,0,0,0.888889,123.611,4.16667)">
                        <path d="M1097.79,27.21L1122.79,52.21C1124.01,53.429 1125.99,53.429 1127.21,52.21C1128.43,50.99 1128.43,49.01 1127.21,47.79L1102.21,22.79C1100.99,21.571 1099.01,21.571 1097.79,22.79C1096.57,24.01 1096.57,25.99 1097.79,27.21Z"/>
                    </g>
                    <g transform="matrix(0.888889,0,0,0.888889,123.611,4.16667)">
                        <path d="M1122.79,22.79L1097.79,47.79C1096.57,49.01 1096.57,50.99 1097.79,52.21C1099.01,53.429 1100.99,53.429 1102.21,52.21L1127.21,27.21C1128.43,25.99 1128.43,24.01 1127.21,22.79C1125.99,21.571 1124.01,21.571 1122.79,22.79Z"/>
                    </g>
                </g>
            </g>
        </g>
    </g>
</svg>
